PathFileType	4	(X/Y/Z)	Patient4_TMGait_0pt8_01_left_48.trc.trc
DataRate	CameraRate	NumFrames	NumMarkers	Units	OrigDataRate	OrigDataStartFrame	OrigNumFrames
86.956521739130	86.956521739130	4	33	mm	86.956521739130	106	       141
Frame#	Time	Sacral			L.Shoulder			Chest			R.Shoulder			Neck			R.ASIS			L.ASIS			R.Thigh.Superior			R.Thigh.Lateral			R.Thigh.Inferior			R.Patella			L.Thigh.Superior			L.Thigh.Lateral			L.Thigh.Inferior			L.Patella			L.Shank.Superior			L.Shank.Lateral			L.Shank.Inferior			R.Shank.Superior			R.Shank.Lateral			R.Shank.Inferior			R.Heel			R.Midfoot.Superior			R.Midfoot.Lateral			R.Toe			L.Heel			L.Midfoot.Lateral			L.Midfoot.Superior			L.Toe			L.Elbow			L.Wrist			R.Elbow			R.Wrist			
		X1	Y1	Z1	X2	Y2	Z2	X3	Y3	Z3	X4	Y4	Z4	X5	Y5	Z5	X6	Y6	Z6	X7	Y7	Z7	X8	Y8	Z8	X9	Y9	Z9	X10	Y10	Z10	X11	Y11	Z11	X12	Y12	Z12	X13	Y13	Z13	X14	Y14	Z14	X15	Y15	Z15	X16	Y16	Z16	X17	Y17	Z17	X18	Y18	Z18	X19	Y19	Z19	X20	Y20	Z20	X21	Y21	Z21	X22	Y22	Z22	X23	Y23	Z23	X24	Y24	Z24	X25	Y25	Z25	X26	Y26	Z26	X27	Y27	Z27	X28	Y28	Z28	X29	Y29	Z29	X30	Y30	Z30	X31	Y31	Z31	X32	Y32	Z32	X33	Y33	Z33	

106	54.647500000000	903.126018254847	1012.830124322350	558.712705876922	1063.900167551818	1432.471095544310	347.137971020243	1186.598138917958	1366.929743468165	495.839610016208	1127.438834702819	1444.850392279686	678.175622389275	1067.147772281612	1497.062538567406	501.284215104487	1139.276345510651	944.290330468135	648.817341626436	1094.498794754091	965.647974428160	378.655832027377	1165.085033135318	738.276408363880	618.738867449398	1076.808622921067	634.750528282094	683.079334598081	1145.361102771236	577.474607155455	601.074983138316	1137.568486433811	488.580815840186	607.730873120472	1187.701821036841	796.631353272545	397.916515717452	1146.177711825837	668.501318353967	319.726737776000	1259.839638751961	614.139034189704	368.910424528115	1282.448774058557	531.403003914510	358.431231015035	1233.562654531570	456.588077751037	351.453664115838	1107.469238715692	374.484860421535	315.124007719510	1145.213692285734	244.398098725783	357.410308397499	1104.305541830007	401.944887188936	614.722871287079	1025.329657235179	302.343381071675	672.663001375700	1063.530799679747	205.364473908802	609.958440504099	920.958850385229	45.110486006801	573.489018183586	1090.676651450558	97.393512556367	618.566411277829	999.893573057943	37.985575569303	652.923842157506	1208.316340362682	42.501160106090	655.041949867199	992.611316820664	123.403267043957	412.283180499863	1048.579525789823	98.329209584005	322.447294324269	1149.452501276434	135.114782731571	331.134798382942	1249.981201759886	50.492071365564	285.889382661515	1003.625274451464	1074.119728208462	266.402756465378	1038.407747793598	815.217669572700	265.103003471028	1179.798044630939	1102.379318026940	803.015542510056	1412.422467653002	1020.501305661036	733.813645403842	
107	54.659000000000	902.137388979921	1013.125423756807	559.744960297923	1062.871237753445	1432.191012440061	347.568044832251	1186.305473019379	1366.282988606503	495.471370765023	1128.752024552808	1444.748047511507	678.100117577002	1067.320377152768	1496.790606482336	501.872811346347	1138.264072543120	943.785076552521	648.678427764766	1092.604311299562	965.700528335296	378.539305859537	1161.329525806171	737.042658691959	618.298374792285	1072.098361170851	634.491355470716	683.278176750987	1139.253757780358	576.363657813206	600.960533040796	1130.239355267272	487.912613405764	607.659051865949	1186.085513889833	797.993895748475	398.109700268336	1145.430615768250	669.185361892940	320.031450759805	1259.163961888742	615.792039784103	369.759815181213	1283.389574768987	535.089766648627	359.318869963832	1238.926491292922	459.367916625711	352.031272086661	1119.518183721588	369.074476150325	313.998337501201	1165.645382159102	241.523084282873	356.670898710121	1096.725736532314	401.464756182175	614.722531442216	1017.405981597110	302.186816190169	672.801169611267	1054.910022097910	205.061935184677	609.954661075280	911.707600595030	45.076787775624	573.619726944175	1081.431977121118	97.391301800676	618.664957473400	990.619248025624	37.951474262958	653.006635129696	1199.037412348752	42.444239521253	655.089786037473	1021.640602397342	109.543276987447	409.407058677740	1080.298755874215	89.151181335536	320.335323193793	1178.026684187552	133.028206721302	330.388524278153	1284.924986823929	56.102804378416	286.401613707025	995.394737220795	1074.958584214621	268.279480147309	1018.751155208828	815.117414913652	269.952569801058	1193.913422137373	1104.974907741017	801.152494852859	1430.827469748406	1044.198756644935	727.148412493020	
108	54.670500000000	901.246422211672	1013.333291210499	560.530341755149	1061.931165220465	1431.903542433036	347.929875444914	1186.092669213514	1365.526952750500	494.994864945495	1130.161083114364	1444.487521883135	677.916737435833	1067.586140733335	1496.429067745802	502.404632655266	1137.326062457649	943.182563167123	648.348010042280	1090.911115837415	965.602681833799	378.217087317083	1157.592381594142	735.728536026378	617.838631255574	1067.267324042951	634.197354992314	683.386798273068	1133.027051388068	575.205448179441	600.830204950560	1122.778282403217	487.259040239331	607.566737932226	1184.216600286033	798.673632366671	398.383346284801	1144.291728896738	669.397362434852	320.234233061089	1257.669009169797	616.543473087130	370.946928620406	1283.401256450748	538.110918083877	360.625852714979	1243.443133602647	461.851674101622	352.905920584020	1131.601959348474	363.821795023473	312.502913815709	1185.653945943072	239.443560524137	356.011242649012	1089.008789621702	400.996371081069	614.674161700298	1009.384427151896	302.033218727508	672.910899833462	1046.221158027241	204.773213932149	609.934082851967	902.449870615808	45.021233993677	573.755068380822	1072.171456380473	97.376054458411	618.748359683097	981.334215307384	37.908373631084	653.083047632647	1189.753676646895	42.398860207920	655.126631560085	1050.807524622289	97.217415456589	405.863837195477	1112.329080482088	81.558564534117	317.992750201936	1206.296050930668	132.209884347815	329.920953655272	1319.091558145683	63.283871984505	288.037977513045	986.619776715208	1076.169735256626	269.862091900252	1000.190459626906	816.022292499803	274.665763721896	1207.905290830034	1107.975671219994	798.991536136214	1447.203938930888	1068.347766998353	720.592696216272	
109	54.682000000000	900.474172564134	1013.454076816361	561.074203849981	1061.079839120357	1431.619407753539	348.220415535053	1185.955013531121	1364.680710549505	494.416423055354	1131.640925712662	1444.084281657662	677.620608421319	1067.919014223224	1495.993901280739	502.855523934625	1136.488389678446	942.492002050377	647.830852342471	1089.430039941229	965.376355948404	377.697157153427	1153.884866876145	734.337475887629	617.372186380752	1062.303760705364	633.876221900755	683.399791654589	1126.671254894320	574.007805242595	600.684992210024	1115.181994371232	486.623034219807	607.445014579177	1182.130314614739	798.684475315791	398.730537539222	1142.810730473644	669.181270065973	320.285212516647	1255.436102349770	616.444450733539	372.378315751575	1282.559420302557	540.475036332414	362.260172872978	1247.114340195411	464.047055341224	353.984883047262	1143.536092169232	358.866651287534	310.725416483027	1204.975347932064	238.219356091673	355.459816821370	1081.142384144726	400.548280798657	614.573892545758	1001.249872462319	301.897736552737	672.992825141042	1037.459092053516	204.510353730081	609.900922883200	893.183630546052	44.947733026379	573.891760726279	1062.893628160449	97.347988919442	618.814703676744	972.038086317657	37.857618759294	653.151010565132	1180.465198685411	42.363689192287	655.152774431493	1079.702920746590	86.589470663172	401.911964341822	1144.184959625268	75.645451386863	315.607624994736	1233.867507150363	132.691857017556	329.760768468156	1352.026352302614	71.958934852538	290.718933638854	977.482414413715	1077.770348613776	271.172407137419	982.754150652629	817.717664267643	279.207054884593	1221.694981501371	1111.356660896557	796.557366587906	1461.537201406774	1092.664165958262	714.215730489981	
